<svg width="143" height="45" viewBox="0 0 143 45" fill="none" xmlns="http://www.w3.org/2000/svg">
<path fill-rule="evenodd" clip-rule="evenodd" d="M19.6603 21.8993L17.4333 10.7113C17.0877 8.97354 16.7498 7.73556 15.9818 6.6975C12.9715 3.64482 10.0303 6.87435 8.39453 10.1193C10.3451 16.5399 12.2496 23.5295 14.1925 29.9193C14.8837 32.2108 16.673 33.2411 18.9077 32.2338C19.8216 31.834 21.1578 31.0343 22.0563 30.4191C23.0469 29.7655 23.5384 29.235 23.9992 28.3584C23.2005 29.6733 21.1578 29.4272 20.7969 27.5972L19.6603 21.8993Z" fill="url(#paint0_linear_507_203)"/>
<path fill-rule="evenodd" clip-rule="evenodd" d="M9.01649 32.1954C6.8048 26.6206 1.29095 11.4572 0.40781 4.00627C0.277259 2.92207 0.300297 1.67639 1.09128 0.830566C0.430848 1.48416 0.046875 2.51453 0.046875 3.86786V36.1401C0.046875 39.4772 2.37375 40.8383 5.40714 39.4849C7.31933 38.6391 10.2682 37.0935 13.5704 35.2789C10.8672 36.4399 9.84587 34.2792 9.01649 32.1954Z" fill="url(#paint1_linear_507_203)"/>
<path fill-rule="evenodd" clip-rule="evenodd" d="M15.9893 6.69763C15.4595 5.97483 14.7069 5.3443 13.5857 4.72915C10.2835 2.91447 7.32692 1.36891 5.40705 0.52308C3.5947 -0.284301 2.05113 -0.122825 1.09119 0.830654C0.261811 1.6611 0.223414 2.92216 0.346285 4.00636C0.768656 7.62035 2.0588 13.0952 4.04779 18.2932C5.30722 15.748 8.07182 9.91178 10.4601 7.31278C11.973 5.66726 14.2 4.88294 15.9893 6.69763Z" fill="url(#paint2_linear_507_203)"/>
<path fill-rule="evenodd" clip-rule="evenodd" d="M25.5503 12.3721C27.7005 15.4325 30.396 24.1599 28.0154 26.8358C30.78 25.1364 32.9763 23.6985 34.0822 22.845C36.1403 21.0073 36.1403 18.985 34.0822 17.1395C32.7229 16.0938 29.6742 14.1407 25.9803 11.9031C25.2585 11.4648 24.5904 11.311 24.0144 11.4648C24.767 11.3725 25.1894 11.8492 25.5503 12.3721Z" fill="url(#paint3_linear_507_203)"/>
<path fill-rule="evenodd" clip-rule="evenodd" d="M20.382 19.7999L19.6602 21.8991L20.5971 27.8429C20.9733 29.673 23.1159 29.9268 24.0067 28.3581C24.145 28.1121 24.2755 27.8429 24.4214 27.52L28.1229 18.9233L28.2228 18.708C28.0538 17.3085 26.3183 11.0263 24.0221 11.4723C23.4538 11.6261 23.0084 12.1182 22.7243 12.9641L20.382 19.7999Z" fill="url(#paint4_linear_507_203)"/>
<path fill-rule="evenodd" clip-rule="evenodd" d="M15.3597 5.97453C13.6241 4.54431 11.4662 5.32093 10.0916 6.81267C9.36972 7.61236 8.7016 8.6658 8.11029 9.71155C6.56671 12.4643 5.26889 15.3863 4.04785 18.3006C4.96171 16.4705 6.64351 12.9334 8.40211 10.1268C8.63249 9.76538 8.85519 9.41936 9.08558 9.0964C9.54635 8.41205 10.0071 7.81228 10.4602 7.32016C11.3049 6.39744 12.3877 5.73616 13.4936 5.67464C14.346 5.62082 15.2138 5.9207 15.9894 6.70502C15.8051 6.45127 15.5978 6.20521 15.3597 5.97453Z" fill="url(#paint5_linear_507_203)"/>
<path d="M70.6505 32.4038C70.627 32.4991 70.6152 32.5943 70.6152 32.6896C70.627 32.773 70.6211 32.8325 70.5975 32.8682C70.5857 32.9039 70.5445 32.898 70.4739 32.8504C70.4032 32.7908 70.2796 32.6658 70.103 32.4752L69.6437 32.3323L69.4494 32.5288C69.4141 32.5646 69.3788 32.5943 69.3434 32.6181C69.2492 32.7015 69.1609 32.7134 69.0785 32.6539C69.0079 32.5824 68.9137 32.4991 68.7959 32.4038C68.7017 32.3204 68.631 32.2668 68.5839 32.243C68.5486 32.2192 68.5251 32.2192 68.5133 32.243C68.5133 32.2549 68.5133 32.2966 68.5133 32.3681C68.5251 32.4276 68.5251 32.4991 68.5133 32.5824C68.5133 32.6181 68.4839 32.6836 68.425 32.7789C68.3661 32.8623 68.3367 32.9218 68.3367 32.9575C68.3131 33.0647 68.2778 33.1004 68.2307 33.0647C68.1836 33.029 68.1365 33.0171 68.0894 33.029C68.0658 33.029 68.0305 33.0171 67.9834 32.9933C67.9481 32.9694 67.901 32.9337 67.8421 32.8861C67.795 32.8385 67.742 32.761 67.6831 32.6539C67.636 32.5348 67.5948 32.4395 67.5595 32.3681C67.5242 32.2847 67.4888 32.2013 67.4535 32.118C67.4182 32.0346 67.377 31.9334 67.3299 31.8143C67.2946 31.6952 67.2533 31.5404 67.2062 31.3499C67.1709 31.1594 67.1238 30.8081 67.0649 30.296C67.0061 29.7839 66.9413 29.1706 66.8706 28.4561C66.8 27.7297 66.7176 26.9199 66.6234 26.0268C66.5409 25.1337 66.4526 24.1988 66.3584 23.2223C66.276 22.2458 66.1877 21.2574 66.0935 20.2571C65.9993 19.2449 65.911 18.2684 65.8285 17.3276C65.7461 16.375 65.6696 15.4759 65.5989 14.6304C65.5283 13.7849 65.4635 13.0406 65.4046 12.3975L58.1628 30.6532C58.0215 30.9986 57.8567 31.3142 57.6683 31.6C57.4799 31.8739 57.2856 32.1001 57.0854 32.2788C56.897 32.4455 56.7086 32.5586 56.5202 32.6181C56.3436 32.6777 56.1964 32.6658 56.0786 32.5824C55.902 32.4633 55.7548 32.3204 55.637 32.1537C55.5311 31.9751 55.4369 31.7905 55.3544 31.6C55.2838 31.3975 55.219 31.1891 55.1601 30.9748C55.1013 30.7604 55.0306 30.5401 54.9482 30.3139C54.8304 29.9685 54.6774 29.4148 54.489 28.6526C54.3123 27.8905 54.1063 27.0033 53.8708 25.9911C53.6352 24.9669 53.388 23.8535 53.1289 22.6507C52.8699 21.4361 52.6049 20.2095 52.3341 18.971C52.0633 17.7206 51.7983 16.5 51.5393 15.3092C51.292 14.1064 51.0565 12.9989 50.8327 11.9867C50.7739 12.4035 50.6797 13.0108 50.5501 13.8087C50.4206 14.5946 50.2675 15.4997 50.0909 16.5238C49.926 17.536 49.7435 18.6257 49.5433 19.7927C49.3432 20.9597 49.143 22.1268 48.9428 23.2938C48.7544 24.4608 48.566 25.5921 48.3776 26.6877C48.201 27.7833 48.0361 28.7717 47.883 29.6529C47.7417 30.5342 47.6181 31.2665 47.5121 31.85C47.4179 32.4217 47.3649 32.7789 47.3531 32.9218C47.3531 33.029 47.3296 33.1421 47.2825 33.2612C47.2472 33.3565 47.1942 33.4577 47.1235 33.5649C47.0647 33.684 46.9822 33.7971 46.8762 33.9043C46.782 33.94 46.6878 33.9757 46.5936 34.0114C46.4994 34.0472 46.417 34.0472 46.3464 34.0114C46.2639 33.9757 46.2168 33.9102 46.2051 33.8149C46.1933 33.7316 46.1285 33.6542 46.0108 33.5827C45.9401 33.5232 45.8636 33.4756 45.7811 33.4398C45.6987 33.416 45.6222 33.3386 45.5515 33.2076C45.5515 33.1243 45.5398 33.0588 45.5162 33.0111C45.5044 32.9873 45.4927 32.9694 45.4809 32.9575C45.4691 32.9456 45.4514 32.9218 45.4279 32.8861C45.4043 32.8504 45.3337 32.773 45.2159 32.6539C45.1453 32.511 45.0923 32.3562 45.057 32.1894C45.0334 32.0108 45.0511 31.7905 45.11 31.5285C45.1335 31.4452 45.1806 31.2308 45.2513 30.8855C45.3219 30.5282 45.4043 30.0995 45.4985 29.5993C45.6045 29.0873 45.7164 28.5276 45.8341 27.9202C45.9519 27.301 46.0696 26.6758 46.1874 26.0447C46.3051 25.4135 46.4111 24.8062 46.5053 24.2227C46.6113 23.6391 46.6996 23.1211 46.7703 22.6686C46.8409 22.2756 46.9528 21.7219 47.1059 21.0074C47.2707 20.2809 47.4591 19.4771 47.6711 18.5959C47.883 17.7147 48.1068 16.7918 48.3423 15.8272C48.5895 14.8626 48.8251 13.9337 49.0488 13.0406C49.2725 12.1355 49.4727 11.3079 49.6493 10.5577C49.8377 9.79552 49.979 9.18819 50.0732 8.73566C50.0497 8.67612 50.032 8.61658 50.0202 8.55704C50.0085 8.49749 50.0026 8.43795 50.0026 8.37841C49.9555 8.25932 49.9614 8.19383 50.0202 8.18192C50.0909 8.17001 50.1439 8.14619 50.1792 8.11047C50.1792 8.08665 50.1851 8.06879 50.1969 8.05688C50.2086 8.04497 50.2145 8.02711 50.2145 8.00329C50.2145 7.93184 50.2263 7.89611 50.2499 7.89611C50.2499 7.7413 50.2734 7.64008 50.3205 7.59245C50.3676 7.54481 50.4147 7.51504 50.4618 7.50313C50.5207 7.49123 50.5737 7.48527 50.6208 7.48527C50.6679 7.48527 50.6973 7.44955 50.7091 7.37809C50.7326 7.22328 50.7562 7.12206 50.7797 7.07443C50.8151 7.01489 50.8504 6.99107 50.8857 7.00298C50.9328 7.00298 50.9917 7.02679 51.0624 7.07443C51.133 7.11015 51.2213 7.15183 51.3273 7.19947C51.3862 7.22328 51.4333 7.23519 51.4686 7.23519C51.5157 7.22328 51.5628 7.22328 51.6099 7.23519C51.657 7.23519 51.71 7.2471 51.7689 7.27092C51.8395 7.29474 51.9219 7.34237 52.0161 7.41382C52.0868 7.47336 52.1457 7.50313 52.1928 7.50313C52.2517 7.50313 52.2988 7.48527 52.3341 7.44955C52.3812 7.41382 52.4165 7.37214 52.4401 7.32451C52.4754 7.27687 52.5048 7.23519 52.5284 7.19947C52.5637 7.13992 52.6167 7.11015 52.6873 7.11015C52.758 7.11015 52.8228 7.13992 52.8816 7.19947C52.9523 7.29474 53.0053 7.36023 53.0406 7.39596C53.0877 7.43168 53.1171 7.46145 53.1289 7.48527C53.1525 7.49718 53.1642 7.50909 53.1642 7.521C53.1642 7.521 53.1701 7.53886 53.1819 7.57458C53.3585 8.11047 53.5116 8.67017 53.6411 9.25368C53.7824 9.8372 53.9237 10.5041 54.065 11.2543C54.2181 12.0045 54.3948 12.8739 54.5949 13.8623C54.7951 14.8388 55.0483 15.9939 55.3544 17.3276C55.8608 19.5903 56.3023 21.4956 56.6792 23.0437C57.056 24.5799 57.3739 25.735 57.6329 26.5091C57.8685 25.9613 58.1511 25.2944 58.4808 24.5085C58.8223 23.7225 59.1814 22.871 59.5582 21.9541C59.935 21.0252 60.3295 20.0666 60.7416 19.0782C61.1538 18.0779 61.56 17.0895 61.9604 16.113C62.3607 15.1365 62.7434 14.2017 63.1084 13.3085C63.4853 12.4154 63.815 11.6116 64.0976 10.8971C64.392 10.1825 64.6392 9.58117 64.8394 9.09292C65.0396 8.60467 65.1691 8.28909 65.228 8.14619C65.2986 7.97947 65.3516 7.84253 65.387 7.73535C65.4341 7.62817 65.4871 7.54481 65.5459 7.48527C65.5813 7.39 65.6284 7.32451 65.6872 7.28878C65.7579 7.24115 65.8344 7.23519 65.9168 7.27092C65.9404 7.29474 65.9698 7.3126 66.0052 7.32451C66.0287 7.34832 66.0523 7.36619 66.0758 7.37809C66.1111 7.37809 66.1406 7.39 66.1641 7.41382C66.1759 7.35428 66.1995 7.32451 66.2348 7.32451C66.2701 7.3126 66.3113 7.30664 66.3584 7.30664C66.4055 7.31855 66.4585 7.33046 66.5174 7.34237H66.641C66.6764 7.31855 66.7117 7.30069 66.747 7.28878C66.7823 7.26496 66.8177 7.27092 66.853 7.30664C66.959 7.36619 67.0296 7.37214 67.0649 7.32451C67.112 7.26496 67.1827 7.23519 67.2769 7.23519C67.3358 7.23519 67.3888 7.22924 67.4359 7.21733C67.4712 7.20542 67.5065 7.19351 67.5418 7.1816C67.5772 7.15779 67.6007 7.12802 67.6125 7.09229C67.6596 7.09229 67.6949 7.09825 67.7185 7.11015C67.7538 7.12206 67.7832 7.13397 67.8068 7.14588L67.8598 7.19947C67.8951 7.2471 67.9481 7.4555 68.0187 7.82466C68.0894 8.18192 68.1659 8.62849 68.2484 9.16437C68.3426 9.68834 68.4309 10.2599 68.5133 10.8792C68.6075 11.4984 68.6899 12.0879 68.7606 12.6476C68.7841 12.8381 68.8312 13.2609 68.9019 13.9159C68.9725 14.5589 69.055 15.3508 69.1492 16.2916C69.2434 17.2205 69.3493 18.2565 69.4671 19.3997C69.5848 20.5429 69.7026 21.6981 69.8203 22.8651C69.9381 24.0321 70.05 25.1753 70.1559 26.2947C70.2619 27.4022 70.3502 28.3966 70.4209 29.2778C70.5033 30.159 70.5622 30.8855 70.5975 31.4571C70.6446 32.0168 70.6623 32.3323 70.6505 32.4038Z" fill="#F7F7F7"/>
<path d="M84.6572 32.9575C84.6572 33.0647 84.5689 33.1957 84.3922 33.3505C84.2156 33.5053 83.9919 33.5827 83.7211 33.5827C83.6386 33.5827 83.4855 33.5411 83.2618 33.4577C83.0499 33.3743 82.8261 33.2493 82.5906 33.0826C82.3551 32.9278 82.1432 32.7372 81.9548 32.511C81.7664 32.2728 81.6663 32.0049 81.6545 31.7071C81.6309 31.5762 81.6192 31.3975 81.6192 31.1713C81.6192 30.9331 81.6192 30.6592 81.6192 30.3496C81.6192 29.8732 81.6192 29.3433 81.6192 28.7598C81.6192 28.1763 81.6309 27.5868 81.6545 26.9914C81.5721 27.4201 81.472 27.8667 81.3542 28.3311C81.2365 28.7836 81.0893 29.2361 80.9126 29.6887C80.736 30.1412 80.5299 30.5877 80.2944 31.0284C80.0589 31.469 79.7881 31.8917 79.482 32.2966C79.3171 32.511 79.1405 32.6955 78.9521 32.8504C78.7754 32.9933 78.5988 33.1123 78.4222 33.2076C78.2455 33.3148 78.0807 33.3922 77.9276 33.4398C77.7745 33.4875 77.6568 33.5113 77.5744 33.5113C77.5273 33.5113 77.4154 33.4577 77.2388 33.3505C77.0739 33.2552 76.8737 33.1302 76.6382 32.9754C76.4145 32.8087 76.1731 32.6301 75.914 32.4395C75.655 32.2371 75.4077 32.0406 75.1722 31.85C74.9367 31.6476 74.7247 31.463 74.5363 31.2963C74.3479 31.1177 74.2125 30.9748 74.1301 30.8676C74.0477 30.7485 73.9711 30.5461 73.9005 30.2603C73.8416 29.9745 73.7886 29.6232 73.7415 29.2064C73.6944 28.7896 73.6532 28.3192 73.6179 27.7952C73.5943 27.2712 73.5825 26.7115 73.5825 26.1161C73.5825 25.7946 73.5884 25.3778 73.6002 24.8657C73.612 24.3537 73.6355 23.8059 73.6709 23.2223C73.7062 22.6269 73.7474 22.0315 73.7945 21.4361C73.8534 20.8287 73.9181 20.2869 73.9888 19.8106C74.0712 19.3223 74.1654 18.9293 74.2714 18.6316C74.3774 18.322 74.501 18.1672 74.6423 18.1672C74.7365 18.1672 74.9014 18.197 75.1369 18.2565C75.3724 18.3041 75.6138 18.328 75.8611 18.328C76.2261 18.328 76.4793 18.2982 76.6206 18.2386C76.7736 18.1672 76.8855 18.1315 76.9562 18.1315C77.0739 18.1315 77.1328 18.2327 77.1328 18.4351C77.1328 18.4947 77.1328 18.5542 77.1328 18.6138C77.1328 18.6614 77.121 18.7209 77.0975 18.7924C77.0857 18.8638 77.0562 19.0484 77.0091 19.3461C76.9738 19.6438 76.9267 20.0249 76.8678 20.4893C76.809 20.9538 76.7501 21.4778 76.6912 22.0613C76.6323 22.6329 76.5735 23.2343 76.5146 23.8654C76.4675 24.4966 76.4263 25.1337 76.3909 25.7767C76.3556 26.4198 76.338 27.0331 76.338 27.6166C76.338 28.0096 76.3438 28.4025 76.3556 28.7955C76.3792 29.1885 76.4145 29.5458 76.4616 29.8673C76.5087 30.1888 76.5735 30.4508 76.6559 30.6532C76.7383 30.8438 76.8384 30.939 76.9562 30.939C77.0621 30.939 77.2093 30.8914 77.3977 30.7961C77.5979 30.689 77.8275 30.4806 78.0866 30.1709C78.3574 29.8613 78.6518 29.4207 78.9697 28.8491C79.2877 28.2775 79.6291 27.5213 79.9942 26.5805C80.371 25.6279 80.7596 24.4668 81.1599 23.0973C81.5721 21.7159 81.9901 20.0725 82.414 18.1672C82.414 18.1315 82.4317 18.1076 82.467 18.0957C82.5141 18.0719 82.5671 18.06 82.6259 18.06C82.779 18.06 82.9733 18.0779 83.2088 18.1136C83.4443 18.1374 83.6681 18.1791 83.88 18.2386C84.1037 18.2863 84.2921 18.3458 84.4452 18.4173C84.6101 18.4887 84.6925 18.5661 84.6925 18.6495C84.6925 19.1854 84.669 19.7689 84.6219 20.4C84.5748 21.0312 84.5218 21.6861 84.4629 22.3649C84.404 23.0318 84.351 23.7165 84.3039 24.4191C84.2568 25.1217 84.2333 25.8184 84.2333 26.5091C84.2333 27.7476 84.2686 28.9325 84.3392 30.0638C84.4217 31.1832 84.5277 32.1478 84.6572 32.9575Z" fill="#F7F7F7"/>
<path d="M98.7168 19.0246C98.7522 19.0961 98.7698 19.1675 98.7698 19.239C98.7816 19.3104 98.7875 19.3938 98.7875 19.489C98.7875 19.8701 98.5873 20.269 98.187 20.6858C97.7984 21.1026 97.1802 21.4837 96.3324 21.8291C96.1557 21.9005 95.9968 21.9362 95.8555 21.9362C95.6788 21.9362 95.5257 21.8886 95.3962 21.7933C95.2785 21.6861 95.2196 21.579 95.2196 21.4718C95.2196 21.4003 95.2608 21.317 95.3432 21.2217C95.4374 21.1264 95.5316 21.0312 95.6258 20.9359C95.7318 20.8406 95.826 20.7513 95.9084 20.668C96.0026 20.5846 96.0498 20.5191 96.0498 20.4715C96.0498 20.3762 95.9732 20.3286 95.8201 20.3286C95.5846 20.3286 95.2844 20.4 94.9193 20.5429C94.5543 20.6739 94.1657 20.8526 93.7536 21.0788C93.3532 21.2932 92.9411 21.5313 92.5172 21.7933C92.105 22.0434 91.7341 22.2935 91.4044 22.5436C91.0747 22.7817 90.8039 22.9961 90.5919 23.1866C90.3917 23.3772 90.2916 23.5141 90.2916 23.5975C90.2916 23.6451 90.3387 23.6689 90.4329 23.6689H90.9452C91.2631 23.6689 91.6694 23.6868 92.1639 23.7225C92.6702 23.7582 93.2001 23.8297 93.7536 23.9369C94.307 24.0321 94.8604 24.175 95.4139 24.3656C95.9791 24.5442 96.4795 24.7883 96.9152 25.0979C97.3627 25.4076 97.7277 25.7827 98.0103 26.2233C98.2929 26.6639 98.4342 27.1879 98.4342 27.7952C98.4342 28.1048 98.3813 28.4383 98.2753 28.7955C98.1811 29.1409 98.0044 29.4981 97.7454 29.8673C97.4981 30.2245 97.1566 30.5937 96.7209 30.9748C96.2853 31.3439 95.7318 31.7131 95.0606 32.0823C94.048 32.6301 93.1 33.0349 92.2169 33.2969C91.3455 33.5589 90.5566 33.6899 89.8501 33.6899C88.9316 33.6899 88.2074 33.4815 87.6775 33.0647C87.1477 32.6479 86.8827 32.0525 86.8827 31.2784C86.8827 30.7068 86.9887 30.2186 87.2006 29.8137C87.4244 29.4088 87.6834 29.0754 87.9778 28.8134C88.2722 28.5395 88.5666 28.343 88.861 28.2239C89.1553 28.0929 89.3791 28.0215 89.5321 28.0096C89.6028 28.0096 89.6617 28.0036 89.7088 27.9917C89.7676 27.9798 89.8265 27.9738 89.8854 27.9738C89.9914 27.9738 90.0444 28.0393 90.0444 28.1703V28.3489C90.0444 28.4204 90.062 28.4859 90.0974 28.5454C90.1327 28.5931 90.1503 28.6467 90.1503 28.7062C90.1503 28.7777 90.062 28.8848 89.8854 29.0277C89.7205 29.1706 89.538 29.3374 89.3378 29.5279C89.1377 29.7184 88.9493 29.9209 88.7726 30.1352C88.6078 30.3496 88.5254 30.558 88.5254 30.7604C88.5254 30.9986 88.7138 31.1177 89.0906 31.1177C89.5616 31.1177 90.0561 31.0284 90.5743 30.8497C91.1041 30.6592 91.6164 30.421 92.1109 30.1352C92.6173 29.8494 93.0942 29.5279 93.5416 29.1706C94.0009 28.8015 94.4012 28.4442 94.7427 28.0989C95.0842 27.7535 95.355 27.432 95.5552 27.1343C95.7554 26.8247 95.8555 26.5805 95.8555 26.4019C95.8555 26.1876 95.7318 26.0149 95.4845 25.8839C95.249 25.7529 94.9193 25.6457 94.4954 25.5624C94.0833 25.479 93.6005 25.4254 93.0471 25.4016C92.4936 25.3659 91.9107 25.348 91.2984 25.348C90.6626 25.348 90.1327 25.3778 89.7088 25.4373C89.2966 25.4969 89.0435 25.5266 88.9493 25.5266C88.8786 25.5266 88.7609 25.5207 88.596 25.5088C88.4429 25.485 88.284 25.4314 88.1191 25.348C87.966 25.2527 87.8306 25.1158 87.7129 24.9372C87.5951 24.7585 87.5362 24.5025 87.5362 24.1691C87.5362 23.9428 87.5833 23.6868 87.6775 23.401C87.7835 23.1152 87.9601 22.8115 88.2074 22.49C88.4665 22.1565 88.8139 21.7993 89.2495 21.4182C89.697 21.0371 90.2622 20.6382 90.9452 20.2214C91.6635 19.7808 92.3347 19.4235 92.9587 19.1496C93.5946 18.8638 94.1657 18.6435 94.672 18.4887C95.1902 18.3339 95.6435 18.2327 96.0321 18.1851C96.4207 18.1255 96.7268 18.0957 96.9506 18.0957C97.4804 18.0957 97.8749 18.1672 98.134 18.3101C98.393 18.4411 98.5873 18.6793 98.7168 19.0246Z" fill="#F7F7F7"/>
<path d="M105.57 9.75384C105.582 9.99201 105.57 10.2599 105.535 10.5577C105.511 10.8435 105.464 11.1233 105.393 11.3972C105.335 11.6711 105.246 11.9152 105.128 12.1296C105.023 12.3439 104.893 12.4928 104.74 12.5762C104.351 12.7786 104.01 12.8798 103.715 12.8798C103.48 12.8798 103.274 12.8262 103.097 12.7191C102.932 12.6 102.768 12.469 102.603 12.3261C102.367 12.1355 102.167 11.8855 102.002 11.5758C101.849 11.2662 101.773 10.9685 101.773 10.6827C101.773 10.4564 101.808 10.1825 101.879 9.86102C101.961 9.52758 102.061 9.20605 102.179 8.89643C102.297 8.58681 102.42 8.30696 102.55 8.05688C102.691 7.79489 102.826 7.61626 102.956 7.521C103.156 7.35428 103.339 7.26496 103.503 7.25306C103.68 7.22924 103.821 7.23519 103.927 7.27092C104.186 7.33046 104.416 7.40787 104.616 7.50313C104.816 7.58649 104.981 7.72344 105.111 7.91398C105.252 8.0926 105.358 8.33077 105.429 8.62849C105.499 8.9262 105.547 9.30132 105.57 9.75384ZM104.122 17.7385C104.181 17.798 104.222 17.9945 104.245 18.328C104.281 18.6614 104.298 19.0961 104.298 19.6319C104.298 19.9892 104.292 20.3762 104.281 20.793C104.269 21.2098 104.251 21.6385 104.228 22.0791C104.216 22.5197 104.198 22.9663 104.175 23.4188C104.151 23.8594 104.133 24.2822 104.122 24.6871C104.086 25.354 104.063 25.9732 104.051 26.5448C104.051 27.1045 104.051 27.6463 104.051 28.1703C104.051 28.861 104.057 29.4922 104.069 30.0638C104.08 30.6354 104.086 31.1117 104.086 31.4928C104.086 31.9096 104.069 32.2311 104.033 32.4574C104.01 32.6717 103.951 32.7908 103.857 32.8146C103.751 32.8385 103.662 32.892 103.592 32.9754C103.521 33.0469 103.456 33.1183 103.398 33.1898C103.339 33.2612 103.268 33.3207 103.186 33.3684C103.115 33.4279 103.027 33.4458 102.921 33.422C102.862 33.4101 102.762 33.3565 102.62 33.2612C102.479 33.1659 102.326 33.0528 102.161 32.9218C102.008 32.7789 101.861 32.6181 101.72 32.4395C101.578 32.2609 101.484 32.0763 101.437 31.8858C101.413 31.7905 101.39 31.6 101.366 31.3142C101.355 31.0284 101.343 30.683 101.331 30.2781C101.319 29.8732 101.307 29.4267 101.296 28.9384C101.284 28.4383 101.272 27.9381 101.26 27.438C101.26 26.9259 101.26 26.4257 101.26 25.9375C101.26 25.4492 101.26 25.0086 101.26 24.6156C101.26 24.0083 101.278 23.3891 101.313 22.7579C101.36 22.1268 101.407 21.5373 101.455 20.9895C101.513 20.4417 101.566 19.9654 101.614 19.5605C101.672 19.1437 101.714 18.8519 101.737 18.6852C101.784 18.3994 101.831 18.1791 101.879 18.0243C101.937 17.8576 101.996 17.7385 102.055 17.667C102.126 17.5956 102.191 17.5539 102.249 17.542C102.32 17.5182 102.391 17.5003 102.461 17.4884C102.603 17.4646 102.762 17.4586 102.938 17.4705C103.127 17.4825 103.303 17.5003 103.468 17.5241C103.633 17.5479 103.774 17.5837 103.892 17.6313C104.022 17.667 104.098 17.7028 104.122 17.7385Z" fill="#F7F7F7"/>
<path d="M119.382 27.5809C119.382 28.2596 119.235 28.9503 118.941 29.6529C118.646 30.3555 118.228 30.9986 117.687 31.5821C117.157 32.1537 116.509 32.6241 115.744 32.9933C114.978 33.3624 114.119 33.547 113.165 33.547C112.388 33.547 111.599 33.3803 110.798 33.0469C110.009 32.7134 109.297 32.2371 108.661 31.6178C108.025 30.9867 107.507 30.2245 107.107 29.3314C106.706 28.4383 106.506 27.438 106.506 26.3305C106.506 25.2349 106.712 24.1988 107.124 23.2223C107.548 22.2339 108.102 21.3765 108.785 20.6501C109.468 19.9118 110.245 19.3283 111.116 18.8996C111.999 18.4709 112.906 18.2565 113.836 18.2565C114.696 18.2565 115.42 18.3756 116.009 18.6138C116.609 18.84 117.092 19.1139 117.457 19.4354C117.822 19.7451 118.081 20.0666 118.234 20.4C118.399 20.7335 118.482 21.0014 118.482 21.2039C118.482 21.6564 118.387 22.0255 118.199 22.3113C118.011 22.5971 117.793 22.8115 117.545 22.9544C117.31 23.0973 117.08 23.1807 116.857 23.2045C116.645 23.2164 116.509 23.1747 116.45 23.0794C116.403 23.0318 116.35 23.008 116.291 23.008C116.244 23.008 116.191 23.0199 116.132 23.0437C116.074 23.0675 116.015 23.0914 115.956 23.1152C115.909 23.139 115.868 23.139 115.832 23.1152C115.773 23.0914 115.767 23.0378 115.815 22.9544C115.873 22.871 115.903 22.7996 115.903 22.7401C115.903 22.6329 115.897 22.5138 115.885 22.3828C115.885 22.2399 115.915 22.091 115.973 21.9362C116.079 21.7219 116.121 21.4897 116.097 21.2396C116.085 20.9776 115.997 20.7335 115.832 20.5072C115.679 20.2809 115.432 20.0904 115.09 19.9356C114.761 19.7808 114.331 19.7034 113.801 19.7034C113.424 19.7034 112.977 19.8284 112.459 20.0785C111.94 20.3286 111.446 20.7216 110.975 21.2574C110.516 21.7814 110.121 22.4542 109.791 23.2759C109.474 24.0857 109.315 25.0563 109.315 26.1876C109.315 26.6758 109.373 27.1879 109.491 27.7238C109.621 28.2596 109.844 28.7538 110.162 29.2064C110.48 29.6589 110.91 30.034 111.452 30.3317C111.993 30.6175 112.682 30.7604 113.518 30.7604C114.072 30.7604 114.578 30.683 115.037 30.5282C115.508 30.3734 115.932 30.1769 116.309 29.9387C116.686 29.7006 117.021 29.4386 117.316 29.1528C117.61 28.867 117.858 28.599 118.058 28.3489C118.258 28.087 118.411 27.8607 118.517 27.6702C118.635 27.4796 118.705 27.3605 118.729 27.3129C118.776 27.2534 118.835 27.2117 118.906 27.1879C118.976 27.1521 119.047 27.1462 119.117 27.17C119.188 27.1819 119.247 27.2236 119.294 27.295C119.353 27.3546 119.382 27.4499 119.382 27.5809Z" fill="#F7F7F7"/>
<path d="M125.035 9.21796C125.035 9.38468 125.023 9.71216 124.999 10.2004C124.976 10.6887 124.946 11.2781 124.911 11.9688C124.876 12.6476 124.834 13.3978 124.787 14.2195C124.752 15.0293 124.711 15.845 124.664 16.6667C124.617 17.4765 124.575 18.2625 124.54 19.0246C124.505 19.7867 124.481 20.4536 124.469 21.0252C124.446 21.3706 124.428 21.7516 124.416 22.1684C124.416 22.5852 124.416 23.0318 124.416 23.5081C124.416 24.1393 124.416 24.8002 124.416 25.4909C124.428 26.1697 124.44 26.8425 124.452 27.5094C124.463 28.1763 124.475 28.8193 124.487 29.4386C124.511 30.0459 124.528 30.5937 124.54 31.0819C124.552 31.5702 124.558 31.981 124.558 32.3145C124.569 32.636 124.575 32.8385 124.575 32.9218C124.575 33.0885 124.546 33.2136 124.487 33.2969C124.44 33.3922 124.375 33.4517 124.293 33.4756C124.222 33.5113 124.146 33.5172 124.063 33.4934C123.981 33.4815 123.91 33.4577 123.851 33.422C123.78 33.3862 123.722 33.3446 123.675 33.2969C123.639 33.2493 123.61 33.2136 123.586 33.1898C123.563 33.1659 123.539 33.16 123.516 33.1719C123.504 33.1838 123.492 33.2314 123.48 33.3148C123.445 33.6244 123.374 33.8566 123.268 34.0114C123.174 34.1662 123.068 34.2675 122.95 34.3151C122.844 34.3746 122.744 34.3925 122.65 34.3687C122.556 34.3449 122.497 34.3032 122.473 34.2437C122.45 34.1841 122.409 34.1484 122.35 34.1365C122.303 34.1246 122.25 34.1127 122.191 34.1008C122.132 34.1008 122.073 34.0829 122.014 34.0472C121.967 34.0233 121.938 33.9638 121.926 33.8685C121.832 33.4636 121.773 32.9516 121.749 32.3323C121.726 31.7012 121.714 30.9926 121.714 30.2067C121.714 29.5279 121.72 28.7955 121.732 28.0096C121.743 27.2236 121.749 26.4198 121.749 25.5981C121.749 25.1217 121.749 24.6514 121.749 24.1869C121.749 23.7106 121.737 23.2283 121.714 22.7401V21.6147C121.714 20.6501 121.737 19.6855 121.785 18.7209C121.832 17.7444 121.891 16.8096 121.961 15.9165C122.032 15.0233 122.108 14.1838 122.191 13.3978C122.273 12.6119 122.344 11.9152 122.403 11.3079C122.462 10.7006 122.509 10.2064 122.544 9.82529C122.579 9.44422 122.591 9.20605 122.579 9.11078C122.568 9.02742 122.574 8.96788 122.597 8.93215C122.632 8.89643 122.674 8.87856 122.721 8.87856C122.78 8.86666 122.838 8.8607 122.897 8.8607C122.956 8.84879 123.009 8.83093 123.056 8.80711C123.139 8.75948 123.204 8.74757 123.251 8.77139C123.309 8.7833 123.357 8.80711 123.392 8.84284C123.427 8.87856 123.457 8.92024 123.48 8.96788C123.516 9.0036 123.563 9.02147 123.622 9.02147C123.692 9.00956 123.745 8.9917 123.78 8.96788C123.828 8.93215 123.863 8.90238 123.886 8.87856C123.922 8.84284 123.951 8.81307 123.975 8.78925C124.01 8.76543 124.051 8.75948 124.098 8.77139C124.193 8.79521 124.281 8.81307 124.363 8.82498C124.458 8.82498 124.505 8.80711 124.505 8.77139C124.528 8.67612 124.564 8.63444 124.611 8.64635C124.658 8.64635 124.717 8.67612 124.787 8.73566C124.858 8.79521 124.917 8.8607 124.964 8.93215C125.011 8.9917 125.035 9.08696 125.035 9.21796Z" fill="#F7F7F7"/>
<path d="M141.973 18.5066C141.938 18.5661 141.814 18.7686 141.602 19.1139C141.402 19.4474 141.143 19.8761 140.825 20.4C140.507 20.9121 140.142 21.5016 139.73 22.1684C139.33 22.8234 138.912 23.5081 138.476 24.2227C138.052 24.9253 137.628 25.6279 137.204 26.3305C136.78 27.0331 136.38 27.694 136.003 28.3132C135.638 28.9206 135.32 29.4624 135.049 29.9387C134.779 30.4151 134.578 30.7723 134.449 31.0105C134.319 31.2487 134.137 31.6178 133.901 32.118C133.666 32.6181 133.395 33.1898 133.089 33.8328C132.783 34.4878 132.453 35.1904 132.1 35.9406C131.758 36.6908 131.411 37.4411 131.058 38.1913C130.716 38.9535 130.381 39.6858 130.051 40.3884C129.733 41.1029 129.444 41.7401 129.185 42.2997C128.938 42.8594 128.732 43.3179 128.567 43.6752C128.402 44.0443 128.308 44.2647 128.285 44.3361C128.179 44.61 128.078 44.7767 127.984 44.8363C127.902 44.9077 127.778 44.9613 127.613 44.997C127.531 45.0089 127.466 44.9851 127.419 44.9256C127.372 44.866 127.331 44.7946 127.295 44.7112C127.26 44.6279 127.225 44.5505 127.189 44.479C127.154 44.4195 127.113 44.3837 127.066 44.3718C126.913 44.348 126.824 44.3123 126.801 44.2647C126.789 44.2289 126.754 44.1515 126.695 44.0324C126.66 43.9848 126.624 43.955 126.589 43.9431C126.554 43.9431 126.518 43.9431 126.483 43.9431C126.448 43.9431 126.424 43.9372 126.412 43.9253C126.389 43.9134 126.377 43.8776 126.377 43.8181C126.4 43.6156 126.418 43.4132 126.43 43.2107C126.453 43.0083 126.483 42.8237 126.518 42.657C126.554 42.526 126.671 42.2521 126.871 41.8353C127.083 41.4185 127.343 40.9065 127.649 40.2991C127.955 39.7037 128.296 39.0368 128.673 38.2985C129.062 37.5721 129.45 36.8278 129.839 36.0657C130.239 35.3154 130.628 34.5711 131.005 33.8328C131.393 33.0945 131.741 32.4217 132.047 31.8143C131.894 31.4809 131.688 31.0522 131.429 30.5282C131.169 29.9923 130.887 29.4029 130.581 28.7598C130.275 28.1048 129.945 27.4141 129.592 26.6877C129.25 25.9613 128.915 25.2408 128.585 24.5263C128.255 23.8118 127.937 23.1211 127.631 22.4542C127.325 21.7874 127.054 21.1919 126.819 20.668C126.595 20.1321 126.418 19.6915 126.289 19.3461C126.159 18.9889 126.094 18.7686 126.094 18.6852C126.106 18.5423 126.136 18.447 126.183 18.3994C126.23 18.3399 126.295 18.3101 126.377 18.3101C126.448 18.3101 126.524 18.328 126.607 18.3637C126.701 18.3994 126.795 18.4351 126.889 18.4709C127.03 18.5304 127.166 18.5899 127.295 18.6495C127.425 18.6971 127.519 18.6733 127.578 18.578C127.613 18.4828 127.713 18.4351 127.878 18.4351C128.043 18.4232 128.179 18.447 128.285 18.5066C128.32 18.5423 128.349 18.5542 128.373 18.5423C128.408 18.5304 128.438 18.5066 128.461 18.4709C128.496 18.4351 128.532 18.3994 128.567 18.3637C128.614 18.316 128.667 18.2803 128.726 18.2565C128.856 18.2327 128.973 18.2565 129.079 18.328C129.185 18.3994 129.285 18.5542 129.38 18.7924C129.439 18.971 129.556 19.2806 129.733 19.7212C129.921 20.1619 130.139 20.6739 130.386 21.2574C130.645 21.841 130.928 22.4721 131.234 23.1509C131.54 23.8178 131.847 24.4787 132.153 25.1337C132.459 25.7767 132.747 26.384 133.018 26.9557C133.301 27.5273 133.548 28.0036 133.76 28.3847C134.078 27.7893 134.419 27.1581 134.784 26.4912C135.161 25.8124 135.538 25.1396 135.915 24.4727C136.303 23.794 136.686 23.133 137.063 22.49C137.44 21.8469 137.793 21.2515 138.123 20.7037C138.464 20.1559 138.765 19.6796 139.024 19.2747C139.283 18.8579 139.495 18.5423 139.659 18.328C139.754 18.2089 139.801 18.1315 139.801 18.0957C139.801 18.06 139.848 18.0243 139.942 17.9886C140.013 17.9647 140.072 17.9409 140.119 17.9171C140.178 17.8933 140.266 17.8933 140.384 17.9171C140.49 17.9409 140.572 17.9528 140.631 17.9528C140.69 17.9528 140.737 17.9886 140.772 18.06C140.796 18.0957 140.831 18.1076 140.878 18.0957C140.925 18.0838 140.978 18.066 141.037 18.0422C141.108 18.0064 141.178 17.9767 141.249 17.9528C141.32 17.9171 141.39 17.9052 141.461 17.9171C141.543 17.929 141.626 17.9469 141.708 17.9707C141.791 17.9826 141.861 18.0124 141.92 18.06C141.991 18.1076 142.032 18.1672 142.044 18.2386C142.056 18.3101 142.032 18.3994 141.973 18.5066Z" fill="#F7F7F7"/>
<defs>
<linearGradient id="paint0_linear_507_203" x1="16.2055" y1="36.4865" x2="16.2055" y2="3.89301" gradientUnits="userSpaceOnUse">
<stop stop-color="#FFC107"/>
<stop offset="0.4926" stop-color="#FFC107"/>
<stop offset="1" stop-color="#FF589B"/>
</linearGradient>
<linearGradient id="paint1_linear_507_203" x1="6.80856" y1="0.452912" x2="6.80856" y2="49.6404" gradientUnits="userSpaceOnUse">
<stop stop-color="#FFC107"/>
<stop offset="0.3387" stop-color="#5EE4C6"/>
<stop offset="0.6882" stop-color="#5EE4C6"/>
<stop offset="0.9892" stop-color="#FFC107"/>
</linearGradient>
<linearGradient id="paint2_linear_507_203" x1="8.14066" y1="0.589155" x2="8.14066" y2="21.3695" gradientUnits="userSpaceOnUse">
<stop stop-color="#FF589B"/>
<stop offset="0.4926" stop-color="#FF589B"/>
<stop offset="1" stop-color="#971147"/>
</linearGradient>
<linearGradient id="paint3_linear_507_203" x1="29.8253" y1="30.7078" x2="29.8253" y2="8.44674" gradientUnits="userSpaceOnUse">
<stop stop-color="#FFCE86"/>
<stop offset="0.5161" stop-color="#FF4F9D"/>
<stop offset="1" stop-color="#9E194F"/>
</linearGradient>
<linearGradient id="paint4_linear_507_203" x1="23.9453" y1="33.8939" x2="23.9453" y2="8.00769" gradientUnits="userSpaceOnUse">
<stop stop-color="#FFCE86"/>
<stop offset="0.5161" stop-color="#FF4F9D"/>
<stop offset="1" stop-color="#9E194F"/>
</linearGradient>
<linearGradient id="paint5_linear_507_203" x1="10.0159" y1="2.13561" x2="10.0159" y2="23.9373" gradientUnits="userSpaceOnUse">
<stop stop-color="#FF85FF"/>
<stop offset="0.4926" stop-color="#9400B7"/>
<stop offset="1" stop-color="#5A00A1"/>
</linearGradient>
</defs>
</svg>
