<svg width="32" height="32" viewBox="0 0 32 32" fill="none" xmlns="http://www.w3.org/2000/svg">
<path d="M31.6571 6.17872L16.204 0.0397285C16.0707 -0.0132428 15.9202 -0.0132428 15.7868 0.0397285L0.47037 6.1242C0.222036 6.22937 0 6.35882 0 6.65572V12.4314C0 12.9094 0.666651 13.0407 1.03563 13.1875V25.9593C1.03563 26.1701 1.17037 26.36 1.3756 26.4386L15.7825 31.9595C15.9145 32.0135 16.0758 32.0135 16.2078 31.9595L30.6147 26.4386C30.8199 26.36 30.9547 26.1701 30.9547 25.9593V13.1872C31.3237 13.0407 31.9903 12.9094 31.9903 12.4312V6.65572C32.0416 6.48441 31.8835 6.22601 31.6571 6.17872ZM16.5378 17.795V13.0839L30.9064 7.42807V12.0867L16.5378 17.795ZM1.0847 12.0867V7.32445L15.4534 13.0815V17.7947L1.0847 12.0867ZM15.9956 1.07668L30.0337 6.6534L15.9972 12.1784L2.08345 6.60327L15.9956 1.07668ZM2.12033 13.618L15.4534 18.9146V30.7189L2.12033 25.6097V13.618ZM29.8705 25.6097L16.5375 30.7189V18.9148L29.8705 13.6182V25.6097Z" fill="white"/>
</svg>
